<svg width="94" height="94" viewBox="0 0 94 94" xmlns="http://www.w3.org/2000/svg" style="background-color: #fff">
<g transform="translate(0,94) scale(0.1,-0.1)" fill="#404041" stroke="none">
<path d="M363 916 c-139 -34 -249 -124 -311 -253 -36 -77 -37 -80 -37 -198 0
-114 2 -123 32 -188 89 -187 297 -300 492 -267 132 22 265 111 328 218 85 145
83 344 -6 484 -105 166 -309 249 -498 204z m279 -70 c126 -60 214 -176 240
-314 33 -176 -69 -364 -239 -445 -63 -30 -75 -32 -174 -32 -101 0 -108 1 -180
37 -93 46 -158 112 -202 206 -29 61 -32 75 -32 167 0 92 3 106 32 167 34 71
104 155 159 189 75 46 133 60 239 56 85 -3 109 -7 157 -31z"/>
<path d="M250 449 c0 -140 0 -140 22 -137 13 2 24 10 25 18 1 8 4 32 8 53 l6
37 158 0 158 0 7 -31 c3 -17 6 -42 6 -55 0 -19 5 -24 25 -24 l25 0 0 140 0
140 -220 0 -220 0 0 -141z"/>
</g>
</svg>
