<svg width="200" height="107" viewBox="0 0 200 107" fill="none" xmlns="http://www.w3.org/2000/svg">
<g clip-path="url(#clip0_592_35859)">
<path d="M143.893 20.5075C138.696 16.9105 138.964 14.9716 138.969 14.9522C138.981 14.2164 139.424 13.8194 139.775 13.8267C140.69 13.8557 141.373 14.4899 141.709 14.945C143.527 17.7723 144.827 18.8615 144.914 18.8833C144.914 18.8833 145.44 18.968 145.168 18.3605C144.919 17.7892 145.333 17.5762 145.333 17.5762C146.795 18.3556 147.785 17.4285 148.255 16.7048C148.843 15.7898 148.16 14.3035 148.16 14.3035C148.16 14.3035 147.509 15.0926 146.403 14.9256C145.246 14.7513 144.784 13.5483 144.585 12.9383C144.585 12.9383 147.974 13.6088 147.299 12.6212C146.626 11.636 144.525 10.6097 142.593 10.4378C138.592 10.0868 137.318 13.0497 137.311 13.0787C135.573 18.0579 142.758 21.9914 145.757 24.6879C148.761 27.3869 147.596 28.527 147.412 28.7497C146.592 29.7349 144.418 30.0157 144.418 30.0157C144.082 30.0665 138.718 30.0205 137.142 26.3049C135.077 20.2001 131.446 14.8264 131.446 14.8264C131.446 14.8264 131.591 18.7623 128.536 20.1735C128.212 20.326 127.684 22.6958 124.843 22.7684C124.632 22.7756 124.869 24.1021 121.856 25.051C121.212 25.2519 120.389 24.9179 120.125 25.2083C119.205 26.2177 118.801 25.9829 118.474 25.8377C118.418 25.8135 118.559 25.7966 118.36 27.6193C118.353 27.687 119.065 28.1445 119.268 28.1155C119.759 28.0477 120.732 27.4982 121.246 27.9315C121.669 28.2922 121.221 30.0834 121.611 30.5288C122.119 31.1122 122.7 31.2211 124 30.8895C126.077 30.3594 126.685 28.9966 126.685 28.9966C126.249 30.3594 126.423 29.8075 125.75 30.7927C123.71 32.8042 121.519 31.6907 121.49 32.8792C121.451 34.5688 122.027 37.9383 122.049 38.892C122.105 41.148 120.638 41.7362 119.486 41.8742C118.338 42.0122 117 40.8793 115.23 41.0754C113.42 41.2763 113.163 42.4963 113.195 42.4624C113.947 41.7193 114.754 42.2349 114.724 42.2397C113.471 42.4673 113.439 43.45 113.439 43.8276C113.439 44.0624 113.916 44.8419 113.88 44.641C113.546 42.8594 115.848 43.5226 115.792 43.5154C114.015 43.2999 114.388 45.0549 114.458 45.1953C114.635 45.5342 114.7 45.66 114.7 45.66C115.964 44.8516 117.339 45.1856 118.026 45.4277C119.551 45.965 120.875 45.418 121.168 45.2921C121.829 45.0089 125.825 40.0491 127.861 38.9235C132.189 36.5223 132.175 36.2923 131.904 35.1667C131.434 33.6708 132.008 33.0487 132.008 33.0487C132.063 33.177 132.245 33.8983 132.741 34.9247C135.428 39.3665 142.196 40.5356 142.196 40.5356C142.196 40.5356 142.987 42.2276 142.123 42.1913C141.259 42.155 139.616 40.8091 137.861 41.1287C135.747 41.5111 135.774 43.0482 135.791 43.0046C136.469 41.62 137.306 42.2591 137.28 42.2688C136.219 42.6778 135.864 43.9462 136.045 44.3021C136.278 44.7523 136.372 44.8782 136.551 45.021C136.609 45.067 136.014 43.5493 137.628 43.617C137.694 43.6195 136.812 43.9559 137.202 45.234C137.241 45.3575 137.727 45.9263 137.727 45.9263C138.906 45.0355 140.134 45.1953 141.286 45.51C142.239 45.7714 144.658 45.5414 144.9 45.1808C145.035 44.9774 147.821 41.3465 143.781 37.1565C142.339 35.6654 143.481 31.9764 144.186 31.9909C148.974 32.078 149.136 29.7421 149.148 29.7228C151.51 25.8643 145.084 21.5436 143.893 20.5075ZM135.999 27.5079C135.484 25.9733 134.302 21.9599 133.598 20.9336C133.598 20.9336 135.205 23.1145 136.348 27.1085C136.348 27.1085 136.735 29.3815 141.262 30.6983C141.259 30.6983 137.03 30.5676 135.999 27.5079Z" fill="#732169"/>
<path d="M114.427 10.3821C116.107 11.4496 118.677 12.1056 118.67 22.9668C118.67 23.831 118.568 24.3248 118.854 24.257C120.793 23.7947 121.495 21.6452 121.824 18.6388C121.824 18.6388 123.55 20.1904 121.168 23.8527C120.924 24.2279 126.009 22.3132 124.233 16.1383C124.233 16.1383 126.385 17.2009 125.738 20.856C125.738 20.856 128.372 20.3671 127.556 14.5213C127.556 14.5213 129.357 15.7873 128.323 18.8929C128.323 18.8929 131.199 15.8623 129.706 11.2825C129.706 11.2825 130.48 11.268 131.027 12.6938L132.516 12.8245C132.516 12.8245 133.288 12.8777 133.288 11.9652C133.288 11.9652 133.392 10.6992 133.804 10.1618L133.349 9.78662C133.349 9.78662 131.027 10.9679 130.78 9.09674C130.78 9.09674 130.906 7.43379 133.414 7.82351L133.581 8.49159H133.968C133.968 8.49159 136.534 5.49246 135.624 4.75902C135.624 4.75902 134.348 3.93601 132.175 4.04494C132.175 4.04494 131.918 2.24643 129.122 2.30453C129.122 2.30453 129.13 -0.672815 121.374 0.130825C121.374 0.130825 115.603 1.15232 118.421 3.82709C118.421 3.82709 116.622 4.07157 116.944 1.77926C116.944 1.77926 111.805 5.33512 114.528 7.21351C114.528 7.21351 118.343 8.79901 118.343 11.2511C118.343 11.2511 117.407 9.45741 115.986 8.98055C113.872 8.27616 112.643 7.2232 112.926 6.2961C112.931 6.30337 112.127 8.92488 114.427 10.3821ZM130.132 3.77626L130.168 4.78807L128.425 3.91181L130.132 3.77626ZM125.448 8.1285C123.388 5.7902 125.862 5.38112 125.862 5.38112C123.998 6.24043 125.787 8.03894 125.787 8.03894C126.755 9.04107 126.895 11.8054 126.895 11.8054C126.719 9.72852 125.448 8.1285 125.448 8.1285ZM125.736 1.09907L127.379 1.66791C127.379 1.66791 120.309 -0.111235 119.895 3.71332C119.897 3.7109 118.452 0.300267 125.736 1.09907ZM119.307 5.90397C119.302 5.91849 119.302 5.93301 119.299 5.94754C119.266 6.13392 119.227 6.92546 120.326 8.25679C120.326 8.25679 122.575 10.3288 123.117 12.9988C123.119 13.0157 123.122 13.023 123.122 13.023C123.119 13.0157 123.117 13.006 123.117 12.9988C123.071 12.8148 122.71 11.5754 120.427 9.13789C120.132 8.82079 119.077 6.80685 119.299 5.94512C119.302 5.91849 119.307 5.90397 119.307 5.90397Z" fill="#732169"/>
<path d="M116.266 13.7127C116.266 13.7127 116.416 12.6791 112.735 10.6192C111.086 9.69935 111.638 7.69751 110.914 6.4388C110.196 5.17767 106.983 4.84362 106.649 8.31235C106.649 8.31235 107.552 9.43793 107.533 9.31932C107.38 8.47211 107.693 8.34382 107.828 8.24457C107.894 8.19858 108.642 7.89843 108.627 9.48876C108.62 10.2246 108.111 10.1375 108.111 10.1375C108.111 10.1375 108.859 11.142 109.208 11.1493C109.554 11.1566 109.765 10.946 110.118 11.0936C110.474 11.2437 109.907 12.0522 109.907 12.0522C109.907 12.0522 114.606 12.6815 116.266 13.7127Z" fill="#732169"/>
<path d="M89.0685 41.0706C87.2991 40.8746 85.9629 42.0074 84.8107 41.8694C83.6633 41.7315 82.1916 41.1433 82.2473 38.8872C82.269 37.9335 82.8451 34.564 82.804 32.8745C82.7774 31.6835 80.5867 32.7994 78.5461 30.7879C77.8732 29.8027 78.0499 30.3546 77.6118 28.9918C77.6118 28.9918 78.2194 30.3546 80.2962 30.8847C81.5985 31.2164 82.1746 31.1074 82.6854 30.5241C83.0775 30.0787 82.6297 28.2874 83.0533 27.9268C83.5641 27.4935 84.5396 28.0429 85.0285 28.1107C85.2343 28.1398 85.9435 27.6847 85.9387 27.6145C85.7402 25.7918 85.8806 25.8063 85.8249 25.8329C85.4981 25.9782 85.0939 26.213 84.1716 25.2036C83.9054 24.9131 83.0848 25.2496 82.4433 25.0462C79.4272 24.0974 79.6645 22.7709 79.4539 22.7636C76.6145 22.691 76.0844 20.3212 75.7625 20.1687C72.7052 18.7599 72.8529 14.8216 72.8529 14.8216C72.8529 14.8216 69.2196 20.1953 67.1572 26.3001C65.579 30.0157 60.2173 30.0617 59.8809 30.0109C59.8809 30.0109 57.7047 29.7301 56.8866 28.7449C56.7026 28.5222 55.5383 27.3845 58.5399 24.6831C61.539 21.9866 68.7282 18.0531 66.9878 13.0739C66.9805 13.0473 65.7097 10.0845 61.706 10.433C59.7744 10.6049 57.6733 11.6312 57.0004 12.6164C56.3274 13.604 59.7163 12.9335 59.7163 12.9335C59.5154 13.5435 59.0506 14.7466 57.8984 14.9208C56.7898 15.0879 56.141 14.2988 56.141 14.2988C56.141 14.2988 55.4512 15.7874 56.0442 16.7C56.5138 17.4238 57.5014 18.3508 58.9659 17.5714C58.9659 17.5714 59.3822 17.7844 59.1305 18.3557C58.8666 18.9608 59.3895 18.8785 59.3895 18.8785C59.4766 18.8567 60.7741 17.7699 62.5919 14.9402C62.9284 14.4851 63.611 13.8509 64.526 13.8219C64.8722 13.8146 65.32 14.2116 65.3321 14.9475C65.3345 14.9668 65.6056 16.9057 60.4061 20.5028C59.22 21.5388 52.7933 25.8596 55.1462 29.7059C55.1583 29.7253 55.3205 32.0636 60.106 31.974C60.8128 31.9595 61.9553 35.6485 60.5127 37.1396C56.4702 41.3296 59.2564 44.9581 59.3943 45.1639C59.634 45.5245 62.0522 45.7545 63.0083 45.4931C64.1605 45.176 65.3877 45.0162 66.5666 45.9094C66.5666 45.9094 67.0531 45.3406 67.0919 45.2171C67.4864 43.9391 66.6029 43.6026 66.6683 43.6002C68.2876 43.5324 67.6922 45.0501 67.7454 45.0041C67.927 44.8613 68.0214 44.7354 68.2513 44.2852C68.4353 43.9294 68.077 42.661 67.0192 42.2519C66.995 42.2422 67.8253 41.6032 68.5055 42.9878C68.5273 43.0313 68.5515 41.4942 66.4407 41.1118C64.6858 40.7923 63.0422 42.1405 62.1756 42.1744C61.3114 42.2107 62.103 40.5187 62.103 40.5187C62.103 40.5187 68.8662 39.3496 71.5579 34.9078C72.0565 33.8814 72.2356 33.1601 72.2913 33.0318C72.2913 33.0318 72.8674 33.6563 72.3978 35.1498C72.1243 36.2754 72.1122 36.5054 76.4402 38.9066C78.4735 40.0346 82.4724 44.9944 83.1308 45.2752C83.4285 45.4011 84.7502 45.9482 86.2727 45.4108C86.9626 45.1687 88.3375 44.8347 89.5986 45.6432C89.5986 45.6432 89.6664 45.5149 89.8383 45.1784C89.9133 45.038 90.2837 43.2806 88.5094 43.4985C88.4561 43.5058 90.7557 42.8425 90.4168 44.6241C90.3805 44.825 90.8598 44.048 90.8598 43.8108C90.8598 43.4307 90.8307 42.448 89.5744 42.2228C89.5478 42.218 90.3514 41.7024 91.1042 42.4455C91.1357 42.4891 90.8767 41.2715 89.0685 41.0706ZM68.2949 27.508C67.2686 30.5676 63.0349 30.6983 63.0349 30.6983C67.5615 29.3815 67.9463 27.1086 67.9463 27.1086C69.0913 23.1146 70.701 20.9336 70.701 20.9336C69.9942 21.96 68.8129 25.9733 68.2949 27.508Z" fill="#732169"/>
<path d="M70.7155 8.49892L70.8825 7.83083C73.3878 7.44111 73.5137 9.10407 73.5137 9.10407C73.2692 10.9752 70.9479 9.79394 70.9479 9.79394L70.4904 10.1667C70.9043 10.7041 71.0035 11.9701 71.0035 11.9701C71.0035 12.8826 71.7805 12.8294 71.7805 12.8294L73.2668 12.6987C73.8163 11.2705 74.5884 11.2875 74.5884 11.2875C73.0925 15.8672 75.973 18.8978 75.973 18.8978C74.9394 15.7898 76.7379 14.5238 76.7379 14.5238C75.9222 20.3696 78.5534 20.8585 78.5534 20.8585C77.9119 17.2034 80.0614 16.1408 80.0614 16.1408C78.2823 22.3133 83.3704 24.2304 83.1235 23.8552C80.7416 20.1929 82.4699 18.6412 82.4699 18.6412C82.7991 21.6476 83.5011 23.7971 85.4376 24.2595C85.7256 24.3272 85.6191 23.8334 85.6191 22.9693C85.6119 12.108 88.1826 11.4496 89.8673 10.3846C92.1645 8.92736 91.3608 6.30343 91.3608 6.30343C91.6464 7.23052 90.4144 8.28348 88.3012 8.98788C86.8803 9.46474 85.9435 11.2584 85.9435 11.2584C85.9435 8.80633 89.7608 7.22084 89.7608 7.22084C92.484 5.34003 87.3475 1.78658 87.3475 1.78658C87.667 4.08131 85.866 3.83441 85.866 3.83441C88.6909 1.15964 82.9202 0.138149 82.9202 0.138149C75.1645 -0.665491 75.1718 2.31185 75.1718 2.31185C72.3736 2.25134 72.1194 4.05227 72.1194 4.05227C69.9457 3.94334 68.6701 4.76634 68.6701 4.76634C67.7623 5.49979 70.3258 8.49892 70.3258 8.49892H70.7155ZM78.8463 8.12856C78.8463 8.12856 77.5755 9.72858 77.3988 11.8055C77.3988 11.8055 77.5392 9.04113 78.505 8.039C78.505 8.039 80.2938 6.24049 78.4299 5.38118C78.4324 5.37876 80.9062 5.79026 78.8463 8.12856ZM83.8715 9.14038C81.5913 11.5779 81.2257 12.8173 81.1822 13.0012C81.1798 13.0109 81.1773 13.0182 81.1773 13.0254C81.1773 13.0254 81.1798 13.0182 81.1822 13.0012C81.7244 10.3313 83.9731 8.25928 83.9731 8.25928C85.0721 6.92794 85.0285 6.13641 84.997 5.95002C84.9922 5.9355 84.9922 5.92097 84.9898 5.90645C84.9898 5.90645 84.9946 5.92097 84.997 5.95002C85.2222 6.80933 84.1644 8.82086 83.8715 9.14038ZM78.5582 1.09913C85.8418 0.30033 84.4016 3.71096 84.4016 3.71096C83.9852 -0.111173 76.9171 1.66555 76.9171 1.66555L78.5582 1.09913ZM74.1624 3.77632L75.8689 3.91187L74.1285 4.78813L74.1624 3.77632Z" fill="#732169"/>
<path d="M93.3796 6.43887C92.6558 7.69759 93.2077 9.69943 91.5617 10.6193C87.8776 12.6792 88.0301 13.7128 88.0301 13.7128C89.6882 12.6816 94.389 12.0547 94.389 12.0547C94.389 12.0547 93.8226 11.2438 94.1784 11.0961C94.5294 10.9485 94.7424 11.1591 95.091 11.1518C95.4371 11.1445 96.1875 10.14 96.1875 10.14C96.1875 10.14 95.6792 10.2295 95.6719 9.49125C95.6598 7.90092 96.4078 8.20107 96.4731 8.24706C96.6063 8.34631 96.9161 8.4746 96.7636 9.32181C96.7442 9.44042 97.6471 8.31484 97.6471 8.31484C97.3107 4.84369 94.0985 5.17774 93.3796 6.43887Z" fill="#732169"/>
<path d="M104.589 29.1079C104.715 29.1878 104.894 29.2483 105.088 29.2483C105.376 29.2483 105.546 29.0982 105.546 28.878C105.546 28.6771 105.429 28.556 105.134 28.4471C104.778 28.3164 104.558 28.13 104.558 27.825C104.558 27.4861 104.839 27.2344 105.262 27.2344C105.485 27.2344 105.647 27.2876 105.742 27.3409L105.664 27.5684C105.596 27.5273 105.449 27.4668 105.255 27.4668C104.96 27.4668 104.846 27.6435 104.846 27.7935C104.846 27.9969 104.979 28.0961 105.279 28.2123C105.645 28.36 105.831 28.5342 105.831 28.8513C105.831 29.1878 105.584 29.4831 105.071 29.4831C104.863 29.4831 104.633 29.4178 104.514 29.3427L104.589 29.1079Z" fill="#732169"/>
<path d="M106.502 27.2708V29.4469H106.216V27.2708H106.502Z" fill="#732169"/>
<path d="M106.993 29.4469V27.2708H107.301L107.995 28.3721C108.155 28.6263 108.283 28.8538 108.383 29.0814L108.395 29.0765C108.37 28.786 108.361 28.5222 108.361 28.1857V27.2708H108.627V29.4469H108.344L107.652 28.3431C107.499 28.101 107.354 27.8517 107.247 27.6145L107.238 27.6193C107.252 27.8928 107.259 28.1567 107.259 28.5174V29.4469H106.993Z" fill="#732169"/>
<path d="M110.636 29.3815C110.537 29.4323 110.329 29.4856 110.06 29.4856C109.445 29.4856 108.988 29.0983 108.988 28.3793C108.988 27.6967 109.45 27.2368 110.125 27.2368C110.389 27.2368 110.568 27.2949 110.641 27.3336L110.568 27.5636C110.467 27.5103 110.314 27.4716 110.133 27.4716C109.619 27.4716 109.283 27.7984 109.283 28.3697C109.283 28.907 109.59 29.2435 110.116 29.2435C110.29 29.2435 110.467 29.2096 110.578 29.1539L110.636 29.3815Z" fill="#732169"/>
<path d="M112.118 28.4278H111.273V29.2121H112.217V29.4469H110.99V27.2708H112.168V27.5055H111.273V28.193H112.118V28.4278Z" fill="#732169"/>
<path d="M105.17 30.9088H105.161L104.713 31.1509L104.645 30.8846L105.209 30.582H105.507V33.1624H105.17V30.9088Z" fill="#732169"/>
<path d="M106.649 32.9204C106.727 32.9253 106.812 32.9204 106.93 32.9059C107.134 32.8793 107.325 32.7994 107.472 32.6542C107.644 32.4993 107.765 32.2717 107.816 31.9692H107.799C107.656 32.1434 107.453 32.2475 107.189 32.2475C106.727 32.2475 106.427 31.8965 106.427 31.4536C106.427 30.9694 106.785 30.5386 107.313 30.5386C107.84 30.5386 108.167 30.9646 108.167 31.6278C108.167 32.1943 107.976 32.5937 107.722 32.843C107.523 33.0342 107.25 33.1577 106.971 33.1867C106.845 33.2037 106.727 33.2109 106.649 33.2061V32.9204ZM107.281 30.8048C106.986 30.8048 106.775 31.0687 106.775 31.4318C106.775 31.7537 106.971 31.9788 107.271 31.9788C107.506 31.9788 107.688 31.8626 107.785 31.7077C107.799 31.6787 107.814 31.6375 107.814 31.5819C107.816 31.1389 107.649 30.8048 107.281 30.8048Z" fill="#732169"/>
<path d="M110.159 30.582V30.812L109.034 33.1624H108.675L109.791 30.8798V30.8701H108.528V30.582H110.159Z" fill="#732169"/>
<path d="M111.386 30.5386C111.888 30.5386 112.142 30.8484 112.142 31.1728C112.142 31.393 112.03 31.6303 111.716 31.7755V31.79C112.033 31.9159 112.236 32.1459 112.236 32.4557C112.236 32.9108 111.851 33.2061 111.357 33.2061C110.82 33.2061 110.493 32.889 110.493 32.5138C110.493 32.187 110.687 31.9522 110.999 31.8167V31.807C110.711 31.6714 110.588 31.4487 110.588 31.226C110.588 30.8169 110.931 30.5386 111.384 30.5386H111.386ZM111.367 32.9519C111.679 32.9519 111.883 32.7583 111.883 32.492C111.883 32.1822 111.665 32.0272 111.314 31.928C111.016 32.0151 110.849 32.2185 110.849 32.463C110.839 32.722 111.033 32.9519 111.362 32.9519H111.367ZM111.374 30.7879C111.084 30.7879 110.927 30.9791 110.927 31.2018C110.922 31.4584 111.12 31.5988 111.42 31.6787C111.643 31.6012 111.813 31.4439 111.813 31.2091C111.813 31.0033 111.689 30.7879 111.382 30.7879H111.374Z" fill="#732169"/>
<path d="M115.603 15.4968L115.55 15.2329L115.291 15.1579C114.993 15.0708 107.671 12.9672 101.973 13.1222C96.2771 12.9672 88.9548 15.0708 88.657 15.1579L88.3956 15.2329L88.3399 15.4968C87.2313 20.9673 87.5605 27.1738 87.5629 27.2391C88.1487 36.5246 91.5496 41.6248 94.2995 44.2681C97.18 47.0373 99.9128 47.7562 100.244 47.836C100.951 48.0854 101.571 48.1362 101.871 48.1435C101.871 48.1435 101.907 48.1435 101.973 48.1435C102.028 48.1435 102.065 48.1435 102.065 48.1435C102.375 48.1362 102.997 48.0854 103.701 47.836C104.03 47.7586 106.768 47.0373 109.646 44.2681C112.396 41.6248 115.797 36.5246 116.38 27.2343C116.385 27.1738 116.714 20.9673 115.603 15.4968ZM98.6033 14.1485L88.4125 24.3392C88.4222 23.3613 88.4561 22.1897 88.5433 20.9286L94.7957 14.6762C96.0036 14.4632 97.3058 14.272 98.6033 14.1485ZM91.6174 15.3298L88.8168 18.1328C88.9112 17.4018 89.0225 16.6684 89.1653 15.9422C89.5768 15.8284 90.4555 15.596 91.6174 15.3298ZM115.492 27.1835C114.925 36.1494 111.687 41.0511 109.068 43.5855C106.24 46.3232 103.503 46.9646 103.476 46.9719L103.423 46.9864C102.803 47.2067 102.251 47.2454 102.031 47.2503C102.026 47.2503 102.007 47.2503 101.975 47.2503H101.973C101.97 47.2503 101.968 47.2503 101.961 47.2503V45.6212L100.581 47.0034C100.562 46.9961 100.542 46.9937 100.528 46.9864L100.472 46.9719C100.457 46.9671 99.5497 46.754 98.2475 46.0593L101.961 42.3461V39.819L96.6886 45.0935C96.1125 44.6844 95.5073 44.193 94.8973 43.6024L101.961 36.5391V34.0144L93.6822 42.2929C93.2199 41.7386 92.7551 41.1092 92.3 40.3951L101.961 30.7321V28.2074L91.3778 38.7903C91.0244 38.098 90.6806 37.3427 90.3684 36.5246L101.961 24.9299V22.4028L89.7269 34.6389C89.4824 33.8183 89.2622 32.9421 89.0758 32.0101L101.961 19.1253V16.5982L88.7151 29.8437C88.6062 28.9965 88.5142 28.1154 88.4561 27.1859C88.4561 27.1786 88.4513 27.0527 88.4416 26.8373L101.271 14.0081C101.506 14.0081 101.736 14.0081 101.961 14.0154H101.975H101.99C106.959 13.8774 113.417 15.567 114.783 15.9422C115.804 21.2263 115.494 27.1278 115.492 27.1835Z" fill="#732169"/>
<path d="M82.4724 71.2483C82.4724 64.3544 76.4741 58.7483 69.101 58.7483C61.7278 58.7483 55.7296 64.3544 55.7296 71.2483C55.7296 78.1398 61.7278 83.7483 69.101 83.7483C76.4741 83.7483 82.4724 78.1398 82.4724 71.2483ZM69.101 65.785C71.8605 65.785 74.1068 68.2346 74.1068 71.2483C74.1068 74.2619 71.8605 76.7116 69.101 76.7116C66.3391 76.7116 64.0927 74.2619 64.0927 71.2483C64.0927 68.2346 66.3391 65.785 69.101 65.785Z" fill="#732169"/>
<path d="M69.4278 87.0935H67.2371H61.2267V90.0684C61.2267 91.7556 62.6912 94.0963 65.4386 94.0963H67.2371V94.1012H89.1097V106.253H97.2937V87.0935H69.4278Z" fill="#732169"/>
<path d="M97.2647 62.781C97.2647 61.0794 95.7978 58.7241 93.0529 58.7241L89.0637 58.7265V85.4597H97.2671V62.781H97.2647Z" fill="#732169"/>
<path d="M43.6895 68.9922V65.1894L43.6847 64.9449V62.7059C43.6847 61.0042 42.2226 58.6489 39.4728 58.6489L35.4836 58.6513V65.7026H35.4861V85.4644H43.6895V76.0434H50.3244V68.9922H43.6895Z" fill="#732169"/>
<path d="M11.205 80.7418L11.2219 80.7273C12.0207 79.9987 12.7106 79.2604 13.2698 78.5367C13.7684 77.917 14.6108 76.7599 15.274 75.2834C16.9515 77.992 19.7061 80.2916 20.6308 80.8822C20.7276 80.9621 20.8269 81.0347 20.9237 81.1025C20.9697 81.1364 21.0205 81.1703 21.0738 81.2066C21.8605 81.7803 25.0169 83.9249 26.0772 83.9249C26.0772 83.9249 26.0772 83.9249 26.0796 83.9249C26.1449 83.9249 26.2079 83.9201 26.2636 83.9056C26.7985 83.7869 27.3383 83.0801 27.8031 82.2499L30.306 78.694L29.6403 78.4737C27.44 77.75 25.7383 76.5348 24.3706 75.5593C23.0853 74.6395 22.0227 73.129 21.2505 72.0301L21.1391 71.8727C20.3645 70.7762 19.8247 69.6361 19.5319 68.4839C19.2244 67.276 19.1784 66.971 19.0816 66.1504L19.0768 62.9359L19.0744 62.902C18.98 61.3721 18.0383 60.3168 16.707 60.2054V60.1885H11.5705V65.2596L11.5753 65.7075V66.1528C11.4688 67.2228 11.4374 67.3341 11.2945 67.8594C11.2437 68.0385 11.1832 68.2612 11.1033 68.5735C10.7911 69.7934 10.2271 71.0667 9.43067 72.3593C8.6343 73.647 7.52808 74.9517 6.14349 76.2322C4.05209 77.796 3.19762 78.3019 0.813323 79.4202L0 79.8051L1.8566 81.0928C4.15618 82.872 5.56739 83.7773 6.04909 83.7773C6.87694 83.7773 9.18861 82.4145 11.205 80.7418Z" fill="#732169"/>
<path d="M8.42371 100.366C8.42371 102.365 8.95866 103.883 10.014 104.878C11.0573 105.856 12.3766 106.354 13.9451 106.354H43.7766V87.1443L8.42371 87.1467V100.366ZM16.4407 97.1801V94.1326H35.4352V99.0682H18.0795C17.5736 99.0682 17.1936 98.9302 16.8789 98.6349C16.5884 98.3638 16.4407 97.8748 16.4407 97.1801Z" fill="#732169"/>
<path d="M149.966 74.2352H142.181V62.6914C142.181 60.9873 140.719 58.6248 137.972 58.6248H133.983V106.25H142.184V81.3349H149.969V74.2352H149.966Z" fill="#732169"/>
<path d="M111.128 60.2077H104.907V63.2044C104.907 64.9061 106.371 67.2614 109.116 67.2614H113.108V67.2493H122.265C121.362 70.9359 119.062 74.9008 117.155 77.1955C114.301 80.6328 110.05 83.5908 105.497 85.3118L105.088 85.4643L104.969 85.8855C104.844 86.3357 104.844 86.3357 106.306 88.2383C106.962 89.088 107.729 90.0756 108.172 90.6396C108.487 91.0438 108.748 91.1866 109.043 91.2738C109.201 91.3222 109.39 91.3464 109.571 91.3464C109.774 91.3464 109.966 91.3173 110.135 91.2568C115.564 89.3857 119.631 86.5003 122.935 82.1747C126.779 77.1375 129.163 71.2675 129.832 65.2014L130.018 60.2053H113.105H111.128V60.2077Z" fill="#732169"/>
<path d="M200 80.6474H192.772C194.788 73.8285 194.358 60.2102 194.358 60.2102H168.665H161.483H160.467V63.2118C160.467 64.9159 161.926 67.2784 164.676 67.2784H166.632L166.634 67.2808H185.963C186.031 74.0633 185.188 78.1977 184.315 80.6474H158.971V80.6498H153.938V83.6538C153.938 85.3579 155.403 87.7204 158.148 87.7204H158.971V87.7228H175.409V106.253H183.997V87.7228H200V80.6474Z" fill="#732169"/>
</g>
<defs>
<clipPath id="clip0_592_35859">
<rect width="200" height="106.354" fill="white"/>
</clipPath>
</defs>
</svg>

